REM DIRINDEX 1\2,1\3,1\4,1\5
REM DIRNAME "folder01","folder02","folder03","folder04","folder05"
TITLE ""
FILE "P1Q_t_1410-1419.mp3" MP3
  TRACK 01 AUDIO
    TITLE "3:cjc173_5204"
    INDEX 01 00:00:00
  TRACK 02 AUDIO
    TITLE "0:"
    INDEX 01 00:01:16
  TRACK 03 AUDIO
    TITLE "4:cjc173_5205"
    INDEX 01 00:01:35
  TRACK 04 AUDIO
    TITLE "0:"
    INDEX 01 00:03:11
  TRACK 05 AUDIO
    TITLE "5:cjc173_5206"
    INDEX 01 00:03:28
  TRACK 06 AUDIO
    TITLE "0:"
    INDEX 01 00:07:44
  TRACK 07 AUDIO
    TITLE "3:cjc173_5207"
    INDEX 01 00:08:16
  TRACK 08 AUDIO
    TITLE "0:"
    INDEX 01 00:09:50
  TRACK 09 AUDIO
    TITLE "4:cjc173_5208"
    INDEX 01 00:09:70
  TRACK 10 AUDIO
    TITLE "0:"
    INDEX 01 00:11:67
  TRACK 11 AUDIO
    TITLE "5:cjc173_5209"
    INDEX 01 00:12:12
  TRACK 12 AUDIO
    TITLE "0:"
    INDEX 01 00:16:17
  TRACK 13 AUDIO
    TITLE "3:cjc173_5210"
    INDEX 01 00:16:62
  TRACK 14 AUDIO
    TITLE "0:"
    INDEX 01 00:18:00
  TRACK 15 AUDIO
    TITLE "4:cjc173_5211"
    INDEX 01 00:18:22
  TRACK 16 AUDIO
    TITLE "0:"
    INDEX 01 00:23:74
  TRACK 17 AUDIO
    TITLE "5:cjc173_5212"
    INDEX 01 00:24:21
  TRACK 18 AUDIO
    TITLE "0:"
    INDEX 01 00:29:14
  TRACK 19 AUDIO
    TITLE "3:cjc173_5213"
    INDEX 01 00:29:59
  TRACK 20 AUDIO
    TITLE "0:"
    INDEX 01 00:31:05
  TRACK 21 AUDIO
    TITLE "4:cjc173_5214"
    INDEX 01 00:31:25
  TRACK 22 AUDIO
    TITLE "0:"
    INDEX 01 00:35:24
  TRACK 23 AUDIO
    TITLE "5:cjc173_5215"
    INDEX 01 00:35:44
  TRACK 24 AUDIO
    TITLE "0:"
    INDEX 01 00:40:33
  TRACK 25 AUDIO
    TITLE "3:cjc173_5216"
    INDEX 01 00:41:03
  TRACK 26 AUDIO
    TITLE "0:"
    INDEX 01 00:42:01
  TRACK 27 AUDIO
    TITLE "4:cjc173_5217"
    INDEX 01 00:42:22
  TRACK 28 AUDIO
    TITLE "0:"
    INDEX 01 00:43:20
  TRACK 29 AUDIO
    TITLE "5:cjc173_5218"
    INDEX 01 00:43:40
  TRACK 30 AUDIO
    TITLE "0:"
    INDEX 01 00:48:54
  TRACK 31 AUDIO
    TITLE "3:cjc173_5219"
    INDEX 01 00:49:24
  TRACK 32 AUDIO
    TITLE "0:"
    INDEX 01 00:50:45
  TRACK 33 AUDIO
    TITLE "4:cjc173_5220"
    INDEX 01 00:50:65
  TRACK 34 AUDIO
    TITLE "0:"
    INDEX 01 00:52:56
  TRACK 35 AUDIO
    TITLE "5:cjc173_5221"
    INDEX 01 00:53:01
  TRACK 36 AUDIO
    TITLE "0:"
    INDEX 01 00:57:24
  TRACK 37 AUDIO
    TITLE "3:cjc173_5222"
    INDEX 01 00:57:69
  TRACK 38 AUDIO
    TITLE "0:"
    INDEX 01 00:59:17
  TRACK 39 AUDIO
    TITLE "4:cjc173_5223"
    INDEX 01 00:59:35
  TRACK 40 AUDIO
    TITLE "0:"
    INDEX 01 01:03:72
  TRACK 41 AUDIO
    TITLE "5:cjc173_5224"
    INDEX 01 01:04:18
  TRACK 42 AUDIO
    TITLE "0:"
    INDEX 01 01:09:51
  TRACK 43 AUDIO
    TITLE "3:cjc173_5225"
    INDEX 01 01:10:21
  TRACK 44 AUDIO
    TITLE "0:"
    INDEX 01 01:11:46
  TRACK 45 AUDIO
    TITLE "4:cjc173_5226"
    INDEX 01 01:11:65
  TRACK 46 AUDIO
    TITLE "0:"
    INDEX 01 01:17:05
  TRACK 47 AUDIO
    TITLE "5:cjc173_5227"
    INDEX 01 01:17:25
  TRACK 48 AUDIO
    TITLE "0:"
    INDEX 01 01:21:46
  TRACK 49 AUDIO
    TITLE "3:cjc173_5228"
    INDEX 01 01:22:16
  TRACK 50 AUDIO
    TITLE "0:"
    INDEX 01 01:23:27
  TRACK 51 AUDIO
    TITLE "4:cjc173_5229"
    INDEX 01 01:23:49
  TRACK 52 AUDIO
    TITLE "0:"
    INDEX 01 01:28:19
  TRACK 53 AUDIO
    TITLE "5:cjc173_5230"
    INDEX 01 01:28:38
  TRACK 54 AUDIO
    TITLE "0:"
    INDEX 01 01:32:73
  TRACK 55 AUDIO
    TITLE "3:cjc173_5231"
    INDEX 01 01:33:45
  TRACK 56 AUDIO
    TITLE "0:"
    INDEX 01 01:34:70
  TRACK 57 AUDIO
    TITLE "4:cjc173_5232"
    INDEX 01 01:35:17
  TRACK 58 AUDIO
    TITLE "0:"
    INDEX 01 01:37:10
  TRACK 59 AUDIO
    TITLE "5:cjc173_5233"
    INDEX 01 01:37:29
  TRACK 60 AUDIO
    TITLE "0:"
    INDEX 01 01:41:72
